<?xml version="1.0" encoding="UTF-8"?>
<svg id="Layer_2" data-name="Layer 2" xmlns="http://www.w3.org/2000/svg" viewBox="0 0 15.71 22.08">
  <defs>
    <style>
      .cls-1 {
        fill: #576b32;
      }
    </style>
  </defs>
  <g id="Layer_1-2" data-name="Layer 1">
    <path class="cls-1" d="M1.74.69c-.17.52.15,1.08.6,1.35.51.3,1.13.24,1.69.26s1.11.08,1.64.26c.05.02.11.04.14.05.01,0,.07.04.05.02.06.07.04.27.05.36.02.29.03.58.01.86,0,.11,0,.14-.04.25,0,.03-.01.05-.02.08-.02.06.02-.04-.01.02-.03.05-.02.05-.07.09.02-.02-.07.02-.08.03-.04.01-.08.01-.13.02-.16,0-.31,0-.47,0-.59,0-1.18-.06-1.76-.17-.5-.1-1.03-.21-1.5-.43-.41-.19-.85-.46-1.06-.88-.1-.21-.07-.39,0-.6.02-.06-.02.04,0-.02.01-.03.03-.06.04-.08.03-.05.06-.1.09-.15.07-.1.12-.17.18-.25.21-.26.46-.49.71-.7.15-.12.13-.38,0-.5-.15-.15-.35-.12-.5,0C.72,1.04.06,1.72,0,2.53c-.04.63.44,1.16.92,1.51.45.32.98.51,1.51.65.65.17,1.31.28,1.98.33.32.02.64.03.96.03s.66-.03.91-.27c.42-.41.36-1.11.34-1.65-.02-.32,0-.71-.23-.97-.2-.22-.53-.3-.81-.38-.7-.19-1.41-.19-2.13-.21-.28,0-.6-.03-.83-.2-.08-.06-.16-.15-.2-.26-.03-.08-.03-.15,0-.24.06-.18-.07-.39-.25-.44-.19-.05-.38.07-.44.25h0Z"/>
    <path class="cls-1" d="M1.66,1.15c1.48-.25,2.98-.36,4.48-.4s2.97-.06,4.44,0c.76.04,1.52.1,2.27.24.33.06.66.13.98.22s.51.18.56.53c.03.18.03.37.02.55,0,.1.02.47-.05.54.11-.12-.24-.06-.33-.07-.21,0-.42-.01-.62-.02-.71-.04-1.41-.12-2.12-.21-1.65-.2-3.3-.44-4.96-.25-.45.05-.45.76,0,.71,1.66-.19,3.32.04,4.96.25.83.1,1.66.2,2.49.23.3.01.74.09,1.01-.09.29-.19.3-.59.31-.91.04-.67.01-1.46-.67-1.8s-1.51-.41-2.24-.51C10.54-.03,8.85,0,7.17.01c-1.91.03-3.81.14-5.69.45-.45.07-.26.76.19.68h0Z"/>
    <path class="cls-1" d="M6.4,4.21c.05,0,.13.09.15.13.06.1.09.22.11.34.05.3.05.61.03.9-.05.65-.28,1.23-.56,1.82-.14.29-.27.58-.41.86s-.31.51-.49.75c-.42.56-.31,1.21-.12,1.84.13.43.82.25.68-.19-.07-.24-.15-.49-.16-.74,0-.23.09-.41.24-.59.34-.44.57-.93.8-1.42s.49-1.01.61-1.57.15-1.13.08-1.69c-.04-.3-.12-.59-.32-.82-.22-.25-.52-.34-.84-.3-.19.03-.29.27-.25.44.06.21.25.27.44.25h0Z"/>
    <path class="cls-1" d="M14.6,2.91c-.05-.04.04.04.05.05.03.03.03.03,0,0,.01.02.02.04.04.05.02.04.04.08.06.12-.03-.06,0,.03.01.04.06.17.1.36.14.54.05.21.08.4.1.59,0,.11,0,.22,0,.33,0,.02,0,.05,0,.07,0-.03,0-.03,0,.02,0,.04-.01.09-.02.13-.16.77-.58,1.37-.76,2.14-.04.18.06.39.25.44.18.04.39-.05.44-.25.04-.16.08-.31.14-.47.03-.07.05-.14.08-.21.01-.04.03-.07.04-.11,0-.02.01-.04.02-.05.02-.06-.02.04,0-.02.13-.31.27-.62.38-.94s.17-.67.16-1.01c-.01-.38-.1-.76-.19-1.12s-.24-.72-.56-.95c-.15-.11-.4-.03-.48.13-.1.18-.04.37.13.48h0Z"/>
    <path class="cls-1" d="M2.93,7.46c1.29-.69,2.74-.96,4.19-1.05,1.57-.1,3.15-.04,4.71.08.58.04,1.22.08,1.73.38.12.07.22.22.33.27l.03.03c.1-.19.09-.24,0-.15-.07,0-.21.11-.28.14-.36.15-.74.24-1.12.33-1.49.37-3.03.47-4.56.47-.87,0-1.74-.04-2.61-.09-.43-.02-.87-.03-1.3-.08-.21-.02-.43-.06-.62-.15-.07-.03-.14-.07-.2-.11-.06-.04-.25-.25-.23-.09l-.1.25.03-.03-.25.1h.04c-.11-.08-.23-.17-.34-.26v.03c.09.18.25.3.45.25.17-.04.32-.26.25-.44v-.03c-.08-.16-.18-.24-.35-.26-.44-.05-.51.48-.27.74.26.29.65.5,1.03.6.45.12.93.12,1.39.15s.9.05,1.36.07c1.87.08,3.75.07,5.59-.26.44-.08.88-.18,1.31-.3s.87-.24,1.23-.49c.78-.56-.29-1.29-.81-1.49-.75-.29-1.61-.3-2.4-.34-.95-.05-1.9-.08-2.85-.07-1.96.02-3.97.24-5.72,1.18-.4.22-.04.83.36.61h0Z"/>
    <path class="cls-1" d="M2.31,7.34c.03,1.13.11,2.25.22,3.37.02.18.15.36.35.35.18,0,.37-.16.35-.35-.12-1.12-.19-2.24-.22-3.37,0-.19-.16-.36-.35-.35s-.36.16-.35.35h0Z"/>
    <path class="cls-1" d="M2.9,11.05c3,.57,6.14.73,9.13.01.87-.21,1.72-.47,2.56-.77.43-.15.24-.84-.19-.68-1.51.54-3.08.98-4.68,1.15s-3.22.07-4.8-.11c-.62-.07-1.23-.16-1.84-.28-.45-.08-.64.6-.19.68h0Z"/>
    <path class="cls-1" d="M14.15,6.85c.05.25.09.51.13.77.02.13.04.26.06.38,0,.07.02.13.03.2.01.1,0-.08,0,.02,0,.03,0,.07.01.1.03.24.05.49.05.74,0,.06,0,.12,0,.18,0,.03,0,.06,0,.08,0,0-.01.12,0,.06s0,.05-.01.06c0,.03-.01.06-.02.08-.01.06-.03.13-.05.19-.05.18.06.39.25.44s.38-.06.44-.25c.15-.52.14-1.06.07-1.59s-.15-1.11-.25-1.66c-.03-.18-.26-.3-.44-.25-.2.06-.28.24-.25.44h0Z"/>
    <path class="cls-1" d="M3.4,20.52c-.21-.89-.14-1.81-.08-2.71s.11-1.85.17-2.78c.04-.66.1-1.38.46-1.96.41-.66,1.2-.81,1.91-.94.85-.16,1.76-.34,2.61-.08.67.2,1.2.67,1.34,1.37.09.44.14.9.21,1.34.03.21.06.42.09.62.02.1.03.2.05.3,0,.02,0,.04,0,.06,0,.06,0-.06,0,0,.04.3.03.59.04.89.05,1.7.17,3.41.28,5.11.03.45.74.46.71,0-.11-1.67-.23-3.34-.28-5.01-.01-.34,0-.67-.05-1.01-.05-.37-.11-.74-.16-1.11-.07-.49-.12-.99-.23-1.47-.18-.78-.77-1.35-1.49-1.66-.87-.37-1.83-.29-2.74-.14-.84.14-1.76.27-2.44.84-.59.5-.83,1.27-.94,2.01-.15,1.05-.16,2.12-.22,3.18-.07,1.11-.18,2.24.08,3.34.11.44.79.26.68-.19h0Z"/>
    <path class="cls-1" d="M7.71,18.4c-.3-1.33-.3-2.7-.21-4.06.02-.33.05-.67.08-1s.04-.64.09-.96c.02-.09.02-.09.11-.1.17-.03.34-.02.51-.04.35-.02.71-.05,1.06-.07.69-.05,1.39-.09,2.08-.14.35-.02.71-.05,1.06-.07.28-.02.58-.06.86,0,.47.12.53.67.56,1.08.04.68.05,1.37.05,2.05.02,1.6-.01,3.2-.1,4.8-.02.46.69.45.71,0,.08-1.56.11-3.12.1-4.68,0-.74,0-1.49-.06-2.23-.04-.58-.18-1.2-.69-1.54-.57-.37-1.36-.2-1.99-.16-.76.05-1.52.1-2.28.16-.38.03-.76.05-1.14.08-.33.02-.72,0-1.03.11-.36.13-.47.45-.51.8-.04.37-.07.74-.1,1.1-.14,1.68-.19,3.39.18,5.05.1.44.78.26.68-.19h0Z"/>
  </g>
</svg>